<?xml version="1.0" encoding="UTF-8"?>
<!DOCTYPE svg PUBLIC "-//W3C//DTD SVG 1.1//EN" "http://www.w3.org/Graphics/SVG/1.1/DTD/svg11.dtd">
<!-- Creator: CorelDRAW 2021 (64-Bit) -->
<svg xmlns="http://www.w3.org/2000/svg" xml:space="preserve" width="1.181in" height="0.278in" version="1.1" style="shape-rendering:geometricPrecision; text-rendering:geometricPrecision; image-rendering:optimizeQuality; fill-rule:evenodd; clip-rule:evenodd"
viewBox="0 0 1181 278"
 xmlns:xlink="http://www.w3.org/1999/xlink"
 xmlns:xodm="http://www.corel.com/coreldraw/odm/2003">
 <defs>
  <style type="text/css">
   <![CDATA[
    .fil1 {fill:#2D8BCB}
    .fil2 {fill:#2D8BCB}
    .fil0 {fill:black;fill-rule:nonzero}
   ]]>
  </style>
 </defs>
 <g id="Layer_x0020_1">
  <metadata id="CorelCorpID_0Corel-Layer"/>
  <g id="_2618378212336">
   <path class="fil0" d="M548.59 39.23l0 231.67 -38 0 0 -101.33 -109 0 0 101.33 -38 0 0 -231.67 38 0 0 99.33 109 0 0 -99.33 38 0zm170.33 231.67l-53.33 -92.67 -29 0 0 92.67 -38 0 0 -231.67 80 0c17.78,0 32.83,3.11 45.17,9.33 12.33,6.22 21.56,14.56 27.67,25 6.11,10.44 9.17,22.11 9.17,35 0,15.11 -4.39,28.83 -13.17,41.17 -8.78,12.33 -22.28,20.72 -40.5,25.17l57.33 96 -45.33 0zm-82.33 -123l42 0c14.22,0 24.94,-3.56 32.17,-10.67 7.22,-7.11 10.83,-16.67 10.83,-28.67 0,-12 -3.56,-21.39 -10.67,-28.17 -7.11,-6.78 -17.89,-10.17 -32.33,-10.17l-42 0 0 77.67zm252.33 126c-17.33,0 -33,-3.94 -47,-11.83 -14,-7.89 -25,-19 -33,-33.33 -8,-14.33 -12,-30.94 -12,-49.83 0,-18.67 4.11,-35.22 12.33,-49.67 8.22,-14.44 19.44,-25.56 33.67,-33.33 14.22,-7.78 30.11,-11.67 47.67,-11.67 17.56,0 33.44,3.89 47.67,11.67 14.22,7.78 25.44,18.89 33.67,33.33 8.22,14.44 12.33,31 12.33,49.67 0,18.67 -4.22,35.22 -12.67,49.67 -8.44,14.44 -19.94,25.61 -34.5,33.5 -14.56,7.89 -30.61,11.83 -48.17,11.83zm0 -33c9.78,0 18.94,-2.33 27.5,-7 8.56,-4.67 15.5,-11.67 20.83,-21 5.33,-9.33 8,-20.67 8,-34 0,-13.33 -2.56,-24.61 -7.67,-33.83 -5.11,-9.22 -11.89,-16.17 -20.33,-20.83 -8.44,-4.67 -17.56,-7 -27.33,-7 -9.78,0 -18.83,2.33 -27.17,7 -8.33,4.67 -14.94,11.61 -19.83,20.83 -4.89,9.22 -7.33,20.5 -7.33,33.83 0,19.78 5.06,35.06 15.17,45.83 10.11,10.78 22.83,16.17 38.17,16.17zm209.33 32.33c-15.56,0 -29.56,-2.72 -42,-8.17 -12.44,-5.44 -22.22,-13.17 -29.33,-23.17 -7.11,-10 -10.67,-21.67 -10.67,-35l40.67 0c0.89,10 4.83,18.22 11.83,24.67 7,6.44 16.83,9.67 29.5,9.67 13.11,0 23.33,-3.17 30.67,-9.5 7.33,-6.33 11,-14.5 11,-24.5 0,-7.78 -2.28,-14.11 -6.83,-19 -4.56,-4.89 -10.22,-8.67 -17,-11.33 -6.78,-2.67 -16.17,-5.56 -28.17,-8.67 -15.11,-4 -27.39,-8.06 -36.83,-12.17 -9.44,-4.11 -17.5,-10.5 -24.17,-19.17 -6.67,-8.67 -10,-20.22 -10,-34.67 0,-13.33 3.33,-25 10,-35 6.67,-10 16,-17.67 28,-23 12,-5.33 25.89,-8 41.67,-8 22.44,0 40.83,5.61 55.17,16.83 14.33,11.22 22.28,26.61 23.83,46.17l-42 0c-0.67,-8.44 -4.67,-15.67 -12,-21.67 -7.33,-6 -17,-9 -29,-9 -10.89,0 -19.78,2.78 -26.67,8.33 -6.89,5.56 -10.33,13.56 -10.33,24 0,7.11 2.17,12.94 6.5,17.5 4.33,4.56 9.83,8.17 16.5,10.83 6.67,2.67 15.78,5.56 27.33,8.67 15.33,4.22 27.83,8.44 37.5,12.67 9.67,4.22 17.89,10.72 24.67,19.5 6.78,8.78 10.17,20.5 10.17,35.17 0,11.78 -3.17,22.89 -9.5,33.33 -6.33,10.44 -15.56,18.83 -27.67,25.17 -12.11,6.33 -26.39,9.5 -42.83,9.5z"/>
   <path class="fil1" d="M-2.92 109.93l22.18 0.03c0.36,5.57 0.04,12.26 0.04,17.94 0,17.91 -0.32,124.47 0.13,124.96 0.04,0.02 0.1,0 0.11,0.04 0.02,0.04 0.1,0.03 0.12,0.02 0.74,-0.06 15.67,-8.89 16.71,-9.56 0.94,-0.59 1.87,-1.06 2.88,-1.67 0.64,-0.39 2.24,-1.2 2.81,-1.77l0.03 -129.89c1.47,-1.18 5.15,-3.07 6.96,-4.07 2.31,-1.28 4.76,-2.73 6.93,-4.08 1.15,-0.72 2.46,-1.29 3.59,-1.96 0.53,-0.31 1.03,-0.69 1.61,-1.02l12.43 -7.17c1.26,-0.76 2.3,-1.35 3.51,-2.02 2.44,-1.37 4.56,-2.77 6.96,-4.05 2.4,-1.27 4.53,-2.8 6.98,-4.05l10.7 -6.07c3.44,-2.15 7.06,-3.87 10.42,-6.11 1.15,-0.78 2.47,-1.4 3.48,-2.03l10.62 -6.13c3.55,-1.86 6.93,-4.13 10.47,-6.07 2.86,-1.57 16.87,-10.09 17.78,-10.16 0.75,-0.06 12.47,7.07 13.96,7.97l14.13 8.13c3.59,1.91 6.91,4.22 10.5,6.06 3.61,1.85 6.95,4.12 10.48,6.07 1.32,0.72 2.24,1.26 3.48,2.02 5.61,3.47 12.09,6.61 17.6,10.17 4.34,2.81 9.51,5.42 14.11,8.17 2.49,1.49 4.79,2.79 7,4.04l7.09 4.11c2.5,1.6 7.76,4.35 10.54,6.04 1.13,0.69 2.36,1.38 3.59,2.07l0.07 26.37c-1.53,0.81 -2.72,1.47 -4.17,2.29 -5.59,3.19 -11.07,6.71 -16.63,9.61 -2.93,1.53 -5.61,3.28 -8.39,4.89l-36.67 21.17c-0.5,0.28 -0.75,0.32 -0.89,0.83 0.4,0.49 7.25,4.26 8.28,4.85 7.62,4.41 15.18,8.48 22.74,13.2l18.85 10.83c2.77,1.82 5.3,2.92 8.28,4.84 2.44,1.57 5.71,3.26 8.51,4.8 0.37,7.73 0.07,16.77 0.09,24.63l0.01 1.89c1.78,1.07 3.85,2.14 5.6,3.19l11.17 6.5c1.09,0.65 4.75,3.07 5.88,3.12l0.02 -51.22c0,-1.82 -0.17,-1.46 -1.95,-2.46 -6.57,-3.71 -12.89,-7.69 -19.55,-11.28 -1.83,-0.99 -3.44,-2.08 -5.55,-3.2 -3.92,-2.1 -7.18,-4.4 -11.17,-6.5 -1.27,-0.67 -5.15,-2.87 -5.51,-3.38 0.64,-0.59 1.7,-1.03 2.56,-1.57 0.4,-0.25 0.84,-0.47 1.33,-0.75l7.01 -4.04c1.73,-1.06 3.59,-2.04 5.44,-3.13l10.95 -6.35c2.23,-1.27 15.58,-8.79 16.5,-9.65l0.01 -39.43c7.41,-0.19 14.83,0 22.24,-0.02 -1.02,-0.71 0,-0.27 -2.19,-1.46l-19.63 -11.35c-0.84,-0.56 -1.62,-1.09 -2.45,-1.55 -0.85,-0.46 -1.61,-0.9 -2.44,-1.37 -0.66,-0.37 -1.75,-0.94 -2.53,-1.45 -2.79,-1.83 -6.87,-3.93 -9.87,-5.74 -5.55,-3.34 -14.6,-8.09 -19.61,-11.38l-4.94 -2.84c-1.54,-0.89 -3.3,-1.9 -4.95,-2.86 -3.26,-1.9 -6.54,-3.79 -9.87,-5.72 -6.39,-3.72 -12.7,-7.31 -19.64,-11.35l-14.83 -8.59c-1.8,-0.99 -3.14,-1.92 -4.93,-2.85l-22.11 -12.72c-0.83,-0.47 -1.56,-1.01 -2.46,-1.5 -1.79,-0.98 -3.2,-1.88 -5,-2.83 -1.51,-0.79 -9.18,-5.61 -9.95,-5.66 -0.68,-0.05 -4.14,2.15 -4.96,2.64l-25.04 14.36c-0.48,0.31 0.02,-0.03 -0.32,0.23 -1.52,1.17 -7.78,4.66 -9.24,5.42 -0.82,0.42 -1.56,0.89 -2.4,1.39l-7.33 4.27c-1.64,1 -3.5,1.94 -4.96,2.83 -5.64,3.45 -11.61,6.69 -17.22,9.98l-27.12 15.68c-3.33,1.93 -6.5,3.91 -9.89,5.71 -3.41,1.81 -6.65,4.07 -9.88,5.72 -1.7,0.87 -3.2,1.85 -4.94,2.86l-12.23 7.15c-2.74,1.85 -21.52,12.07 -22.04,12.99l-0.03 0.02 0 0zm67.51 13.41l0 101.56c0,1.14 -0.22,2.11 0.47,2.68l-0.09 0.22c-0.06,0.02 0.37,-0.19 0.84,-0.08 0.72,0.17 1.56,0.87 2.28,1.22l8.34 4.8c7.38,4.48 14.64,8.23 22.15,12.83l16.74 9.7c2,1.12 3.73,2.05 5.57,3.19l11.22 6.47c3.97,2.26 7.04,4.17 11.11,6.42l11.26 6.48c0.48,0.04 26.02,-14.79 28.15,-16.09 1.69,-1.03 3.72,-2.28 5.59,-3.3 4.06,-2.19 7.43,-4.42 11.25,-6.47 1.83,-0.98 3.85,-2.16 5.53,-3.2 1.86,-1.15 3.75,-2.14 5.67,-3.28 3.52,-2.07 7.7,-4.58 11.17,-6.49 1.94,-1.07 3.82,-2.09 5.57,-3.21 3.83,-2.44 7.39,-4.06 11.2,-6.48 1.28,-0.82 4.8,-2.48 5.62,-3.31 -0.2,-0.53 -0.52,-0.65 -1.11,-0.94 -0.48,-0.24 -0.96,-0.47 -1.51,-0.81 -2.45,-1.52 -4.98,-2.81 -7.4,-4.38 -0.03,-0.02 -0.28,-0.2 -0.33,-0.24 -0.28,-0.19 -0.4,-0.24 -0.72,-0.38 -1.88,-0.82 -4.02,-2.2 -5.76,-3.24 -1.09,-0.65 -4.81,-2.95 -5.79,-3.23 -0.67,0 -15.09,8.62 -16.83,9.67l-8.37 4.78c-6.98,4.07 -14.08,7.89 -21,12.11 -3.19,1.94 -20.26,12.04 -20.91,12.01 -0.36,-0.02 -30.71,-17.74 -33.48,-19.3l-4.1 -2.37c-7,-4.25 -13.78,-7.98 -21,-12.1l-6.16 -3.67c-0.69,-0.38 -1.53,-0.73 -2.19,-1.22l-0.04 -77.41c0.76,-0.48 1.72,-0.93 2.44,-1.37 0.76,-0.46 1.5,-0.91 2.4,-1.4l19.46 -11.33c1.55,-0.9 3.41,-1.89 4.94,-2.86 2.3,-1.45 4.83,-2.68 7.29,-4.14l9.67 -5.7c2.41,-1.35 4.95,-3 7.42,-4.21l12.13 -7.06c1.68,-1.05 2.83,0.09 5.17,1.57 0.93,0.59 1.57,0.89 2.42,1.39l29.31 16.92c1.61,0.9 3.08,1.9 4.89,2.87 4.87,2.6 9.78,5.77 14.57,8.44l9.77 5.64c0.69,0.4 1.72,1.29 2.66,0.98l19.64 -11.38c0.81,-0.46 1.78,-1.1 2.56,-1.42 -0.33,-0.7 -0.4,-0.56 -1.2,-1 -0.55,-0.3 -0.93,-0.59 -1.41,-0.85 -0.98,-0.54 -1.81,-1.06 -2.78,-1.59l-14.02 -8.07c-0.75,-0.44 -2.02,-1.28 -2.85,-1.7 -2.1,-1.04 -3.54,-1.99 -5.57,-3.2 -2,-1.19 -3.72,-2.09 -5.71,-3.25 -3.72,-2.15 -7.77,-4.44 -11.3,-6.56 -7.11,-4.27 -15.19,-8.59 -22.39,-12.97 -3.68,-2.24 -7.44,-4.26 -11.22,-6.48l-5.67 -3.28c-7.33,-4.19 -3.81,-3.8 -11.5,0.13 -4.71,2.41 -9.33,5.55 -14.01,8.08 -1.1,0.59 -1.69,1.01 -2.84,1.69 -5.41,3.18 -11.49,6.47 -16.86,9.76 -1.79,1.09 -3.84,2 -5.65,3.29 -0.77,0.55 -1.93,0.95 -2.82,1.56 -0.87,0.59 -1.91,1.15 -2.74,1.63 -0.92,0.53 -1.81,1.06 -2.8,1.59 -4.81,2.56 -9.43,5.77 -14.15,8.13 -3.01,1.51 -8,4.79 -11.15,6.52 -1.93,1.06 -3.71,2.29 -5.65,3.27l-5.05 2.77c-0.28,0.27 -0.28,0.22 -0.39,0.67l0.04 -0.03 0 0.01zm46.03 26.31l-0.03 49.39c0,1.76 0.59,1.64 1.77,2.36l8.33 4.78c2.58,1.54 7.13,3.95 9.54,5.51 0.52,0.33 0.82,0.61 1.35,0.89 2.47,1.31 16.43,9.19 19.37,11.09 4.62,2.98 3.37,1.94 8.57,-0.78 5.04,-2.64 11.13,-6.69 16.62,-9.62 4.87,-2.6 11.79,-7.09 16.48,-9.55 0.61,-0.32 4.92,-2.72 5.51,-3.34 -0.46,-0.81 -6.78,-4.15 -8.1,-4.94 -2.82,-1.69 -5.19,-2.93 -8.17,-4.74 -0.66,-0.4 -1.4,-0.81 -2.07,-1.19 -4.78,-2.71 -3.49,-2.78 -6.26,-1.11 -3.5,2.11 -8.88,4.92 -12.35,7.09l-6.11 3.58c-0.87,0.36 -1.5,-0.3 -2.2,-0.7 -5.24,-2.94 -11.18,-6.66 -16.37,-9.48 -3.22,-1.75 -3.07,-1.39 -3.07,-3.34l0.01 -22.63 10.41 -6.1c1.62,-0.89 9.83,-5.93 10.66,-5.95 0.77,-0.02 6.55,3.54 8.02,4.39 0.95,0.54 1.62,1.02 2.64,1.54 1.63,0.85 3.45,1.89 5.21,2.98 1,0.62 4.56,2.78 5.43,2.98 1.55,-0.79 3.88,-2.21 5.42,-3.15 1.84,-1.12 3.71,-2.15 5.68,-3.27 2.02,-1.16 3.59,-2.06 5.7,-3.26 0.93,-0.53 1.82,-1.09 2.78,-1.6 0.47,-0.24 0.89,-0.54 1.39,-0.87 0.71,-0.47 1.02,-0.33 1.37,-1 -0.39,-0.6 0.04,-0.09 -0.56,-0.5 -0.25,-0.17 -0.44,-0.25 -0.74,-0.41l-4.06 -2.38c-1.78,-1 -3.57,-2.1 -5.42,-3.13l-5.47 -3.11c-1.85,-1.19 -3.66,-2.12 -5.54,-3.22l-16.24 -9.41c-1.05,-0.62 -4.93,-3.11 -5.79,-2.98l-40.95 23.59c-0.92,0.62 -1.81,0.97 -2.74,1.63l-0.03 -0.04 0 -0z"/>
   <path class="fil1" d="M838.83 67.93c1.69,-1.23 3.2,-2.66 4.94,-3.84l8.02 -6.07c2.58,-2.15 5.29,-3.87 7.81,-6.11 0.86,-0.78 1.85,-1.4 2.61,-2.03l7.96 -6.13c2.66,-1.86 5.19,-4.13 7.85,-6.07 2.14,-1.57 12.65,-10.09 13.33,-10.16 0.56,-0.06 9.35,7.07 10.46,7.97l10.59 8.13c2.69,1.91 5.18,4.22 7.87,6.06 2.71,1.85 5.21,4.12 7.86,6.07 0.99,0.72 1.68,1.26 2.61,2.02 4.2,3.47 9.06,6.61 13.19,10.17l34.23 0c-4.11,-3.15 -9.53,-7.03 -12.74,-9.85l-3.7 -2.84c-1.15,-0.89 -2.47,-1.9 -3.71,-2.86 -2.44,-1.9 -4.9,-3.79 -7.4,-5.72 -4.79,-3.72 -9.52,-7.31 -14.72,-11.35l-11.12 -8.59c-1.35,-0.99 -2.35,-1.92 -3.69,-2.85l-16.57 -12.72c-0.62,-0.47 -1.17,-1.01 -1.84,-1.5 -1.34,-0.98 -2.4,-1.88 -3.75,-2.83 -1.13,-0.79 -6.88,-5.61 -7.46,-5.66 -0.51,-0.05 -3.11,2.15 -3.72,2.64l-18.77 14.36c-0.36,0.31 0.02,-0.03 -0.24,0.23 -1.14,1.17 -5.83,4.66 -6.93,5.42 -0.61,0.42 -1.17,0.89 -1.8,1.39l-5.5 4.27c-1.23,1 -2.62,1.94 -3.72,2.83 -4.23,3.45 -8.7,6.69 -12.91,9.98l-20.33 15.68c-2.5,1.93 -4.87,3.91 -7.41,5.71 -1.86,1.32 -3.65,2.87 -5.42,4.26l34.11 0 0.01 -0z"/>
   <ellipse class="fil2" cx="890.15" cy="179.71" rx="27.74" ry="32.04"/>
  </g>
 </g>
</svg>
